HIERARCHY
ROOT Bip001_Pelvis
{
  OFFSET -0.518542 91.1688 -12.0061
  CHANNELS 6 Xposition Yposition Zposition Zrotation Xrotation Yrotation
  JOINT Bip001_Spine
  {
    OFFSET 1.44608e-005 10.4157 -0.0118244
    CHANNELS 3 Zrotation Xrotation Yrotation
    JOINT Bip001_L_Thigh
    {
      OFFSET 11.2582 -10.4157 0.0118432
      CHANNELS 3 Zrotation Xrotation Yrotation
      JOINT Bip001_L_Calf
      {
        OFFSET -0.720717 -44.8687 0.366937
        CHANNELS 3 Zrotation Xrotation Yrotation
        JOINT Bip001_L_Foot
        {
          OFFSET -0.664439 -41.3745 -3.62995
          CHANNELS 3 Zrotation Xrotation Yrotation
          JOINT Bip001_L_Toe0
          {
            OFFSET 0.0541048 -10.4146 13.4033
            CHANNELS 3 Zrotation Xrotation Yrotation
            End Site
            {
              OFFSET -1.04503e-005 0 7.70137
            }
          }
        }
      }
    }
    JOINT Bip001_R_Thigh
    {
      OFFSET -11.2582 -10.4156 0.0118122
      CHANNELS 3 Zrotation Xrotation Yrotation
      JOINT Bip001_R_Calf
      {
        OFFSET 0.72059 -44.8687 0.36676
        CHANNELS 3 Zrotation Xrotation Yrotation
        JOINT Bip001_R_Foot
        {
          OFFSET 0.664321 -41.3745 -3.62979
          CHANNELS 3 Zrotation Xrotation Yrotation
          JOINT Bip001_R_Toe0
          {
            OFFSET -0.05417 -10.4146 13.4033
            CHANNELS 3 Zrotation Xrotation Yrotation
            End Site
            {
              OFFSET -1.04873e-005 0 7.70137
            }
          }
        }
      }
    }
    JOINT Bip001_Spine1
    {
      OFFSET 1.90638e-005 14.8539 1.10727
      CHANNELS 3 Zrotation Xrotation Yrotation
      JOINT Bip001_Spine2
      {
        OFFSET 2.28934e-005 14.7848 -1.7233
        CHANNELS 3 Zrotation Xrotation Yrotation
        JOINT Bip001_Neck
        {
          OFFSET 2.24514e-005 15.6905 -0.498826
          CHANNELS 3 Zrotation Xrotation Yrotation
          JOINT Bip001_L_Clavicle
          {
            OFFSET 6.17691 -0.000591152 0.00852867
            CHANNELS 3 Zrotation Xrotation Yrotation
            JOINT Bip001_L_UpperArm
            {
              OFFSET 11.773 -0.0611878 0.00197697
              CHANNELS 3 Zrotation Xrotation Yrotation
              JOINT Bip001_L_Forearm
              {
                OFFSET 26.4515 0.0817569 -2.19579
                CHANNELS 3 Zrotation Xrotation Yrotation
                JOINT Bip001_L_Hand
                {
                  OFFSET 32.8679 0.156744 1.67111
                  CHANNELS 3 Zrotation Xrotation Yrotation
                  JOINT Bip001_L_Finger0
                  {
                    OFFSET 6.16272 -2.25228 6.01663
                    CHANNELS 3 Zrotation Xrotation Yrotation
                    End Site
                    {
                      OFFSET 4.30501 -1.46664 0.618137
                    }
                  }
                  JOINT Bip001_L_Finger1
                  {
                    OFFSET 11.2958 -0.718383 -0.201959
                    CHANNELS 3 Zrotation Xrotation Yrotation
                    End Site
                    {
                      OFFSET 6.31956 -0.405168 -0.0802288
                    }
                  }
                }
              }
            }
          }
          JOINT Bip001_R_Clavicle
          {
            OFFSET -6.17691 -0.000574027 0.00851165
            CHANNELS 3 Zrotation Xrotation Yrotation
            JOINT Bip001_R_UpperArm
            {
              OFFSET -11.773 -0.0611516 0.00194365
              CHANNELS 3 Zrotation Xrotation Yrotation
              JOINT Bip001_R_Forearm
              {
                OFFSET -26.4514 0.0822336 -2.19736
                CHANNELS 3 Zrotation Xrotation Yrotation
                JOINT Bip001_R_Hand
                {
                  OFFSET -32.8678 0.156816 1.67144
                  CHANNELS 3 Zrotation Xrotation Yrotation
                  JOINT Bip001_R_Finger0
                  {
                    OFFSET -6.1627 -2.25225 6.01669
                    CHANNELS 3 Zrotation Xrotation Yrotation
                    End Site
                    {
                      OFFSET -4.305 -1.46662 0.618133
                    }
                  }
                  JOINT Bip001_R_Finger1
                  {
                    OFFSET -11.2958 -0.718346 -0.201993
                    CHANNELS 3 Zrotation Xrotation Yrotation
                    End Site
                    {
                      OFFSET -6.31953 -0.405147 -0.0802474
                    }
                  }
                }
              }
            }
          }
          JOINT Bip001_Head
          {
            OFFSET 1.11782e-005 11.4912 2.09908
            CHANNELS 3 Zrotation Xrotation Yrotation
            End Site
            {
              OFFSET 2.95144e-005 21.2823 -2.83069e-005
            }
          }
        }
      }
    }
  }
}
MOTION
Frames:	11
Frame Time:	0.0333333
0.948708 90.4639 -10.7387 3.90529 -2.48342 -1.99346 -1.16566 2.84879 1.52512 -7.22182 -12.5355 0.426888 0.0547909 23.5746 -0.430181 1.93692 -11.2153 16.0871 -2.11504e-007 2.82823e-008 -1.15568e-009 -6.2785 -28.7807 0.142756 -0.124824 33.6211 0.571818 -0.304763 -7.96124 -17.2769 -1.31775e-007 -2.93356e-007 1.68699e-006 -2.3384 5.63023 3.08232 -2.34857 5.6342 3.08875 -10.1397 -1.04871 7.10151 -15.9774 4.59482 -7.2278 0.334295 66.3573 -18.9099 -5.5146 4.82066 -78.8443 69.5768 8.84586 -42.146 1.59028e-015 -7.95139e-016 -0 1.59028e-015 3.97569e-015 -0 42.0353 -3.3039 -8.20379 -12.6813 62.279 54.7933 2.63998 0.736519 27.5562 -21.2358 -30.8417 1.08464 0 0 -0 -0 0 1.59028e-015 -4.86314 -2.37545 5.39319 
0.939751 90.4923 -10.764 3.90455 -2.4834 -2.01035 -1.16566 2.84879 1.52512 -7.22591 -12.4915 0.409478 0.0538007 23.4536 -0.429786 1.94323 -11.1332 16.1262 -2.11504e-007 2.82823e-008 -1.15567e-009 -6.2546 -28.7768 0.192412 -0.12478 33.6174 0.571794 -0.202262 -8.30569 -17.3105 -1.31775e-007 -2.93356e-007 1.68699e-006 -2.3384 5.63023 3.08232 -2.34857 5.6342 3.08875 -10.166 -1.04862 7.14016 -15.9744 4.59444 -7.26494 0.334295 66.3573 -18.9099 -5.51624 4.81839 -78.825 69.7654 8.85215 -42.0149 -4.77083e-015 -7.95139e-016 -3.18055e-015 -1.59028e-015 -7.95139e-016 -0 42.0598 -3.33228 -8.23092 -12.6551 62.2754 54.8864 2.6268 0.716764 27.3504 -21.2685 -30.9237 1.08557 -3.53112e-031 -6.36111e-015 -3.18055e-015 6.36111e-015 -1.27222e-014 -0 -4.8352 -2.34308 5.42638 
0.926972 90.4974 -10.7722 3.90442 -2.48575 -2.01163 -1.16566 2.84879 1.52512 -7.20314 -12.4835 0.463971 0.0537794 23.451 -0.429777 1.95978 -11.1205 16.0801 -2.11504e-007 2.82823e-008 -1.15568e-009 -6.19468 -28.7493 0.331104 -0.124208 33.5697 0.571477 -0.202532 -8.2181 -17.4568 -1.31775e-007 -2.93356e-007 1.68699e-006 -2.3384 5.63023 3.08232 -2.34857 5.6342 3.08875 -10.1664 -1.04855 7.17127 -15.971 4.60182 -7.2952 0.356116 66.3557 -18.9086 -5.51508 4.82009 -78.8387 69.6173 8.74275 -42.0818 4.77083e-015 7.95139e-016 -0 4.77083e-015 -7.95139e-016 -0 42.0579 -3.35358 -8.25363 -12.6179 62.2819 54.9154 2.62279 0.710691 27.286 -21.2694 -30.9606 1.06363 0 0 -0 -1.76556e-031 -3.18056e-015 -3.18055e-015 -4.84551 -2.29909 5.47148 
0.908459 90.4512 -10.7639 3.90416 -2.48996 -2.01414 -1.16566 2.84879 1.52512 -7.19654 -12.5742 0.455033 0.055449 23.6549 -0.430444 1.94957 -11.2496 16.1436 -2.11504e-007 2.82823e-008 -1.15567e-009 -6.25523 -28.7778 0.091838 -0.124091 33.5599 0.571413 -0.46173 -7.61685 -17.3388 -1.31775e-007 -2.93356e-007 1.68699e-006 -2.33855 5.63312 3.08234 -2.34841 5.6342 3.08875 -10.1674 -1.04846 7.20999 -15.9516 4.60934 -7.33369 0.358612 66.3554 -18.9084 -5.51129 4.82466 -78.8838 69.5975 8.76294 -42.0649 -3.18055e-015 6.36111e-015 3.18055e-015 -6.36111e-015 7.15625e-015 3.18055e-015 42.0776 -3.38233 -8.28041 -12.6162 62.2666 54.7247 2.64336 0.742624 27.623 -21.2899 -30.9999 1.08752 -3.18055e-015 3.18055e-015 6.36111e-015 -0 0 6.36111e-015 -4.8196 -2.24955 5.51772 
0.896398 90.4591 -10.7748 3.90337 -2.49519 -2.02792 -1.16566 2.84879 1.52512 -7.19155 -12.5496 0.451191 0.0551498 23.6184 -0.430324 1.96498 -11.281 16.1371 -2.11504e-007 2.82823e-008 -1.15567e-009 -6.22742 -28.7586 0.171603 -0.123402 33.5023 0.571032 -0.448362 -7.48256 -17.4183 -1.31775e-007 -2.93356e-007 1.68699e-006 -2.33896 5.64061 3.08238 -2.34866 5.64078 3.08878 -10.186 -1.06485 7.25541 -15.9209 4.63752 -7.37341 0.353266 66.3554 -18.9084 -5.51084 4.82509 -78.889 69.6256 8.76833 -42.0928 -1.59028e-015 6.36111e-015 -6.36111e-015 -3.18055e-015 7.95139e-015 -3.18055e-015 42.1099 -3.40162 -8.32509 -12.5848 62.256 54.731 2.64132 0.738037 27.5531 -21.256 -31.0625 1.08782 0 0 -0 3.18055e-015 3.18056e-015 3.18055e-015 -4.80599 -2.17329 5.57205 
0.886921 90.4612 -10.7878 3.90359 -2.50871 -2.01219 -1.16566 2.84879 1.52512 -7.17677 -12.519 0.484415 0.0546939 23.5627 -0.430142 2.05734 -11.1189 16.1725 -2.11504e-007 2.82823e-008 -1.15567e-009 -6.19349 -28.7313 0.297911 -0.122797 33.4516 0.570698 -0.41393 -7.34561 -17.555 -1.31775e-007 -2.93356e-007 1.68699e-006 -2.3395 5.65072 3.08243 -2.3494 5.65079 3.08884 -10.1867 -1.09042 7.29605 -15.9101 4.6722 -7.4059 0.353638 66.3527 -18.9143 -5.51078 4.82516 -78.8896 69.6504 8.78038 -42.0831 1.59028e-015 -7.15625e-015 -0 3.18055e-015 -7.95139e-015 3.18055e-015 42.1095 -3.40998 -8.37238 -12.5703 62.2491 54.7642 2.63584 0.732295 27.5035 -21.2201 -31.0815 1.11194 -3.18055e-015 0 3.18055e-015 -3.18055e-015 -3.18056e-015 6.36111e-015 -4.78861 -2.14594 5.61514 
0.872133 90.4618 -10.7994 3.90371 -2.51083 -2.00762 -1.16566 2.84879 1.52512 -7.17539 -12.5832 0.471277 0.0559539 23.7164 -0.430647 1.81597 -11.4962 15.9869 -2.11504e-007 2.82823e-008 -1.15567e-009 -6.15718 -28.7223 0.383863 -0.122704 33.4438 0.570647 -0.362671 -7.38399 -17.6903 -1.31775e-007 -2.93356e-007 1.68699e-006 -2.33973 5.65491 3.08245 -2.3501 5.65527 3.08886 -10.2164 -1.06755 7.34115 -15.8816 4.6596 -7.45712 0.383736 66.3431 -18.9413 -5.5108 4.82528 -78.8892 69.566 8.7555 -42.1366 -3.18055e-015 -7.95139e-016 -0 -1.59028e-015 1.59028e-015 -3.18055e-015 42.131 -3.4598 -8.38882 -12.5493 62.2518 54.7728 2.63413 0.729019 27.4819 -21.2151 -31.1794 1.13047 3.18055e-015 -6.36111e-015 -6.36111e-015 9.54166e-015 -3.18056e-015 -6.36111e-015 -4.76894 -2.12199 5.6396 
0.866498 90.4689 -10.8129 3.92312 -2.51285 -2.00808 -1.16566 2.84879 1.52512 -7.17505 -12.5489 0.467716 0.0551448 23.6178 -0.430322 1.92749 -11.3119 16.0917 -2.11504e-007 2.82823e-008 -1.15567e-009 -6.13894 -28.7201 0.491162 -0.122647 33.4391 0.570616 -0.318376 -7.4184 -17.7935 -1.31775e-007 -2.93356e-007 1.68699e-006 -2.33994 5.65875 3.08247 -2.35095 5.6591 3.08888 -10.2454 -1.04056 7.37463 -15.8608 4.63991 -7.49789 0.391831 66.3285 -18.9299 -5.51071 4.82538 -78.8904 69.5176 8.76892 -42.1105 3.18055e-015 5.56597e-015 3.18055e-015 4.77083e-015 6.36111e-015 6.36111e-015 42.1632 -3.50615 -8.39326 -12.5133 62.2495 54.777 2.63341 0.725601 27.423 -21.2804 -31.3667 1.08818 -3.18055e-015 3.18055e-015 -3.18055e-015 -6.36111e-015 0 -3.18055e-015 -4.76757 -2.07962 5.68651 
0.857376 90.4843 -10.824 3.92735 -2.52679 -2.00765 -1.16566 2.84879 1.52512 -7.17712 -12.5121 0.459606 0.0545266 23.5423 -0.430075 1.9305 -11.2577 16.0751 -2.11504e-007 2.82823e-008 -1.15567e-009 -6.13824 -28.7209 0.507115 -0.122584 33.4338 0.570581 -0.225048 -7.50572 -17.7986 -1.31775e-007 -2.93356e-007 1.68699e-006 -2.34017 5.66298 3.0825 -2.35196 5.66341 3.0889 -10.2435 -1.01181 7.41164 -15.8395 4.61977 -7.54255 0.33854 66.3184 -18.9165 -5.51017 4.82597 -78.8969 69.5804 8.74274 -42.0974 -0 -7.95139e-016 -0 -3.53113e-031 3.18056e-015 6.36111e-015 42.1726 -3.55483 -8.4018 -12.5124 62.225 54.7821 2.62843 0.722403 27.3974 -21.2141 -31.2604 1.13745 -3.18055e-015 0 -0 -3.18055e-015 -3.18056e-015 -3.18055e-015 -4.76329 -2.01494 5.71248 
0.849731 90.5061 -10.8461 3.92903 -2.52965 -2.00035 -1.16567 2.84913 1.52512 -7.17869 -12.5086 0.454788 0.0540804 23.4878 -0.429897 1.91674 -11.2191 16.0401 -2.11504e-007 2.82823e-008 -1.15567e-009 -6.08836 -28.7269 0.653321 -0.12292 33.462 0.570766 -0.11742 -7.87678 -17.9098 -1.31775e-007 -2.93356e-007 1.68699e-006 -2.3404 5.6673 3.08252 -2.35304 5.66749 3.08892 -10.2389 -1.02828 7.43905 -15.833 4.6424 -7.56467 0.311154 66.3105 -18.9294 -5.50655 4.83029 -78.9399 70.1434 8.95806 -41.4807 -1.59028e-015 3.18055e-015 -0 -3.18055e-015 5.56597e-015 3.18055e-015 42.1977 -3.56511 -8.43326 -12.499 62.2115 54.8381 2.61406 0.721527 27.2509 -21.2865 -31.2429 1.12866 0 3.18055e-015 -0 0 6.36111e-015 -0 -4.7341 -1.97591 5.7381 
0.84217 90.5145 -10.8567 3.92929 -2.53189 -1.99457 -1.16571 2.8506 1.52512 -7.17204 -12.4826 0.486672 0.0534472 23.4103 -0.429645 1.86386 -11.1229 15.9094 -2.11504e-007 2.82823e-008 -1.15567e-009 -6.07848 -28.734 0.689579 -0.123193 33.4848 0.570917 -0.0771671 -8.00894 -17.8265 -1.31775e-007 -2.93356e-007 1.68699e-006 -2.34061 5.67113 3.08254 -2.3541 5.67109 3.08894 -10.2694 -1.00768 7.4646 -15.8049 4.62695 -7.59641 0.335735 66.2966 -18.9424 -5.50404 4.83328 -78.9695 70.1343 9.03636 -41.3784 -3.18055e-015 0 3.18055e-015 -3.18055e-015 2.38542e-015 3.18055e-015 42.2135 -3.60076 -8.43966 -12.4977 62.2052 54.8676 2.61132 0.722495 27.2261 -21.5869 -31.2859 1.02017 3.18055e-015 3.18055e-015 -3.18055e-015 3.18055e-015 9.54167e-015 -3.18055e-015 -4.74416 -1.92389 5.76053 
